<?xml version="1.0" standalone="no"?>
<!DOCTYPE svg PUBLIC "-//W3C//DTD SVG 20010904//EN"
 "http://www.w3.org/TR/2001/REC-SVG-20010904/DTD/svg10.dtd">
<svg version="1.0" xmlns="http://www.w3.org/2000/svg"
 width="484.000000pt" height="484.000000pt" viewBox="0 0 484.000000 484.000000"
 preserveAspectRatio="xMidYMid meet">
<metadata>
Created by potrace 1.14, written by Peter Selinger 2001-2017
</metadata>
<g transform="translate(0.000000,484.000000) scale(0.100000,-0.100000)"
fill="#000000" stroke="none">
<path d="M2160 4800 c0 -17 -7 -20 -40 -20 -33 0 -40 -3 -40 -20 0 -18 -7 -20
-80 -20 -73 0 -80 -2 -80 -20 0 -19 -7 -20 -100 -20 -93 0 -100 -1 -100 -20 0
-18 -7 -20 -80 -20 -73 0 -80 -2 -80 -20 0 -18 -7 -20 -60 -20 -53 0 -60 -2
-60 -20 0 -18 -7 -20 -80 -20 -73 0 -80 -2 -80 -20 0 -17 -7 -20 -40 -20 -33
0 -40 -3 -40 -20 0 -17 -7 -20 -40 -20 l-40 0 0 -40 c0 -33 -3 -40 -20 -40
-13 0 -20 -7 -20 -20 0 -13 -7 -20 -20 -20 -17 0 -20 -7 -20 -40 0 -33 -3 -40
-20 -40 -13 0 -20 -7 -20 -20 0 -13 -7 -20 -20 -20 -13 0 -20 -7 -20 -20 0
-13 -7 -20 -20 -20 -13 0 -20 -7 -20 -20 0 -13 -7 -20 -20 -20 -17 0 -20 -7
-20 -40 0 -33 -3 -40 -20 -40 -18 0 -20 -7 -20 -60 0 -53 -2 -60 -20 -60 -17
0 -20 -7 -20 -40 0 -33 -3 -40 -20 -40 -13 0 -20 -7 -20 -20 0 -13 -7 -20 -20
-20 -17 0 -20 -7 -20 -40 0 -33 -3 -40 -20 -40 -17 0 -20 -7 -20 -40 0 -33 -3
-40 -20 -40 -17 0 -20 -7 -20 -40 0 -33 -3 -40 -20 -40 -17 0 -20 -7 -20 -40
0 -33 -3 -40 -20 -40 -18 0 -20 -7 -20 -80 0 -73 -2 -80 -20 -80 -17 0 -20 -7
-20 -40 0 -33 -3 -40 -20 -40 -18 0 -20 -7 -20 -60 0 -53 -2 -60 -20 -60 -19
0 -20 -7 -20 -140 0 -133 -1 -140 -20 -140 -19 0 -20 -7 -20 -100 0 -93 -1
-100 -20 -100 -18 0 -20 -7 -20 -60 0 -53 -2 -60 -20 -60 -18 0 -20 -7 -20
-60 0 -53 -2 -60 -20 -60 -18 0 -20 -7 -20 -80 0 -73 -2 -80 -20 -80 -19 0
-20 -7 -20 -220 0 -213 1 -220 20 -220 19 0 20 -7 20 -160 0 -153 -1 -160 -20
-160 -13 0 -20 -7 -20 -20 0 -13 -7 -20 -20 -20 -13 0 -20 -7 -20 -20 0 -13
-7 -20 -20 -20 -13 0 -20 -7 -20 -20 0 -17 -7 -20 -40 -20 -33 0 -40 -3 -40
-20 0 -13 -7 -20 -20 -20 -13 0 -20 -7 -20 -20 0 -13 -7 -20 -20 -20 -13 0
-20 -7 -20 -20 0 -27 36 -27 43 0 3 11 12 20 20 20 8 0 17 9 20 20 4 15 14 20
40 20 26 0 36 5 40 20 3 11 12 20 20 20 8 0 17 9 20 20 3 11 12 20 20 20 8 0
17 9 20 20 3 11 12 20 20 20 8 0 17 9 20 21 4 13 12 20 24 17 15 -3 19 -15 21
-72 l3 -70 -41 -38 c-24 -23 -40 -47 -40 -61 0 -29 -18 -47 -47 -47 -12 0 -34
-12 -48 -26 -26 -26 -26 -26 -6 -41 13 -9 21 -25 21 -44 0 -25 4 -29 28 -29
16 0 32 8 40 20 7 11 23 20 37 20 16 0 39 15 65 42 38 41 40 42 57 25 17 -18
17 -19 -5 -37 -29 -24 -28 -30 7 -30 19 0 35 -8 45 -21 14 -21 15 -20 54 22
35 36 43 41 56 30 37 -31 20 -60 -104 -183 -86 -86 -120 -126 -120 -143 0 -13
-10 -31 -22 -39 l-21 -15 24 -21 24 -20 -23 -19 c-12 -11 -22 -31 -22 -45 0
-15 -8 -31 -20 -38 -18 -12 -20 -24 -20 -118 0 -94 2 -106 20 -118 17 -10 20
-23 20 -82 0 -40 4 -70 10 -70 6 0 10 22 10 49 0 31 5 53 15 61 25 21 45 -5
45 -59 0 -35 5 -49 20 -59 12 -7 20 -23 20 -40 0 -16 8 -32 20 -40 30 -18 26
-62 -9 -95 -16 -15 -36 -27 -44 -27 -8 0 -17 -9 -20 -20 -5 -18 -14 -20 -97
-20 -82 0 -92 2 -97 19 -3 11 -13 21 -24 24 -10 3 -19 12 -19 20 0 8 -9 17
-20 20 -11 3 -20 12 -20 20 0 8 -9 17 -20 20 -11 3 -20 12 -20 21 0 9 -8 16
-20 16 -13 0 -20 -7 -20 -20 0 -13 7 -20 20 -20 17 0 20 -7 20 -40 l0 -40 40
0 c33 0 40 -3 40 -20 0 -13 7 -20 20 -20 11 0 20 -4 20 -10 0 -6 111 -10 314
-10 266 0 315 2 326 15 7 8 25 15 40 15 16 0 30 7 34 15 3 8 17 15 31 15 14 0
34 11 47 25 25 28 69 33 88 10 11 -13 8 -20 -16 -45 -16 -16 -37 -30 -46 -30
-10 0 -18 -4 -18 -10 0 -7 467 -10 1380 -10 913 0 1380 3 1380 10 0 6 18 10
40 10 22 0 40 -4 40 -10 0 -5 9 -10 20 -10 16 0 20 7 20 30 l0 30 80 0 c73 0
80 2 80 20 0 13 7 20 20 20 13 0 20 7 20 20 0 17 7 20 40 20 33 0 40 3 40 20
0 13 7 20 20 20 13 0 20 7 20 20 0 13 7 20 20 20 13 0 20 7 20 20 0 13 7 20
20 20 19 0 20 7 20 100 0 93 -1 100 -20 100 -17 0 -20 7 -20 40 l0 40 -40 0
c-33 0 -40 3 -40 20 0 18 -7 20 -60 20 -53 0 -60 2 -60 20 0 18 -7 20 -60 20
-53 0 -60 2 -60 20 0 17 -7 20 -40 20 -33 0 -40 3 -40 20 0 13 -7 20 -20 20
-17 0 -20 7 -20 40 l0 40 40 0 40 0 0 120 c0 113 -1 120 -20 120 -18 0 -20 7
-20 60 0 53 2 60 20 60 13 0 20 7 20 20 0 17 7 20 40 20 33 0 40 3 40 20 0 13
7 20 20 20 13 0 20 7 20 20 0 13 -7 20 -20 20 -13 0 -20 7 -20 20 0 13 -7 20
-20 20 -19 0 -20 7 -20 100 0 93 1 100 20 100 18 0 20 7 20 60 0 53 2 60 20
60 19 0 20 7 20 200 0 193 1 200 20 200 18 0 20 7 20 80 0 73 2 80 20 80 19 0
20 7 20 140 0 133 -1 140 -20 140 -18 0 -20 7 -20 60 0 53 -2 60 -20 60 -19 0
-20 7 -20 140 0 133 -1 140 -20 140 -18 0 -20 7 -20 60 0 53 -2 60 -20 60 -18
0 -20 7 -20 60 0 53 -2 60 -20 60 -13 0 -20 7 -20 20 0 13 -7 20 -20 20 -17 0
-20 7 -20 40 0 33 -3 40 -20 40 -13 0 -20 7 -20 20 0 13 -7 20 -20 20 -18 0
-20 7 -20 60 0 53 -2 60 -20 60 -17 0 -20 7 -20 40 0 33 -3 40 -20 40 -17 0
-20 7 -20 40 0 33 -3 40 -20 40 -17 0 -20 7 -20 40 0 33 -3 40 -20 40 -17 0
-20 7 -20 40 0 33 -3 40 -20 40 -13 0 -20 7 -20 20 0 13 -7 20 -20 20 -17 0
-20 7 -20 40 0 33 -3 40 -20 40 -13 0 -20 7 -20 20 0 13 -7 20 -20 20 -18 0
-20 7 -20 60 0 53 -2 60 -20 60 -19 0 -20 7 -20 160 0 153 -1 160 -20 160 -13
0 -20 7 -20 20 0 13 -7 20 -20 20 -13 0 -20 7 -20 20 0 18 -7 20 -80 20 -73 0
-80 2 -80 20 0 13 -7 20 -20 20 -13 0 -20 7 -20 20 0 13 -7 20 -20 20 -13 0
-20 7 -20 20 0 13 -7 20 -20 20 -13 0 -20 7 -20 20 0 17 -7 20 -40 20 -33 0
-40 3 -40 20 0 13 -7 20 -20 20 -13 0 -20 7 -20 20 0 17 -7 20 -40 20 -33 0
-40 3 -40 20 0 17 -7 20 -40 20 -33 0 -40 3 -40 20 0 17 -7 20 -40 20 -33 0
-40 3 -40 20 0 18 -7 20 -60 20 -53 0 -60 2 -60 20 0 17 -7 20 -40 20 -33 0
-40 3 -40 20 0 19 -7 20 -140 20 -133 0 -140 -1 -140 -20z m160 -30 c13 -8 13
-11 -2 -27 -17 -16 -19 -16 -35 0 -16 16 -16 19 -3 27 8 5 17 10 20 10 3 0 12
-5 20 -10z m117 -6 c10 -26 -14 -41 -35 -21 -15 16 -15 19 -2 27 21 14 30 12
37 -6z m80 -44 c5 -17 14 -20 60 -20 46 0 56 -3 60 -19 4 -14 15 -21 42 -23
28 -2 36 -7 36 -23 0 -30 -59 -34 -77 -6 -8 13 -23 21 -40 21 -24 0 -28 -4
-28 -27 0 -34 -57 -93 -89 -93 -13 0 -31 -10 -41 -22 -15 -19 -20 -20 -34 -9
-29 24 -19 64 24 104 22 20 40 39 40 42 0 15 -57 3 -68 -15 -7 -12 -23 -20
-40 -20 -16 0 -32 -8 -40 -20 -15 -24 -64 -27 -82 -5 -11 13 -4 24 45 73 l57
57 19 -24 20 -24 15 21 c9 13 26 22 40 22 14 0 32 7 40 15 21 21 35 19 41 -5z
m-477 -30 c13 -9 11 -13 -9 -31 l-24 -20 21 -15 c19 -13 22 -25 22 -84 0 -59
-3 -72 -20 -82 -12 -8 -20 -24 -20 -39 0 -15 -7 -32 -15 -39 -13 -11 -21 -7
-50 21 -34 34 -35 35 -35 122 l0 87 -30 0 c-26 0 -30 -4 -30 -27 0 -19 -12
-40 -35 -62 l-35 -34 -37 36 c-35 36 -36 38 -27 85 l9 47 96 3 c87 2 97 5 102
22 4 17 14 20 54 20 26 0 55 -5 63 -10z m-681 -159 c22 -14 -5 -41 -40 -41
-16 0 -29 -4 -29 -10 0 -5 22 -10 49 -10 56 0 82 -19 61 -45 -7 -8 -24 -15
-39 -15 -15 0 -31 -8 -39 -20 -9 -16 -23 -20 -62 -20 -28 0 -50 -4 -50 -10 0
-5 13 -10 29 -10 37 0 59 -24 41 -45 -20 -24 -107 -20 -122 5 -20 32 -28 24
-28 -28 0 -43 -4 -52 -40 -85 -35 -32 -40 -42 -40 -80 0 -50 -13 -67 -52 -67
-15 0 -28 -4 -28 -10 0 -5 12 -10 28 -10 33 0 101 -65 85 -81 -5 -5 -41 -12
-79 -16 -51 -4 -72 -11 -82 -25 -7 -10 -24 -18 -38 -18 -15 0 -38 -15 -64 -42
-33 -36 -42 -40 -50 -28 -14 22 -12 31 9 37 11 3 21 13 24 24 3 10 12 19 21
19 12 0 16 10 16 36 0 27 5 37 20 41 17 5 20 14 20 60 0 46 3 56 20 60 15 4
20 14 20 40 0 26 5 36 19 40 11 3 21 13 24 24 3 10 12 19 21 19 9 0 16 7 16
16 0 9 9 18 20 21 11 3 20 12 20 20 0 8 9 17 20 20 15 4 20 14 20 40 0 26 5
36 20 40 11 3 20 12 20 20 0 8 9 17 20 20 11 3 20 12 20 20 0 8 9 17 19 20 11
3 21 13 24 24 4 14 14 19 40 19 26 0 36 5 40 20 6 22 49 28 76 11z m1505 -61
c29 -29 28 -50 -2 -50 -22 1 -76 56 -67 69 11 19 39 11 69 -19z m253 -106 c8
-21 -13 -42 -28 -27 -13 13 -5 43 11 43 6 0 13 -7 17 -16z m160 -43 c3 -11 13
-21 24 -24 17 -5 19 -15 19 -90 0 -113 -2 -117 -58 -117 -37 0 -51 6 -78 33
-19 18 -34 42 -34 55 0 13 -10 32 -22 42 l-23 19 53 51 c40 37 61 50 83 50 22
0 32 -6 36 -19z m-1077 -266 c21 -26 0 -35 -79 -35 -70 0 -79 -2 -84 -20 -4
-17 -14 -20 -60 -20 -31 0 -59 5 -62 10 -13 21 17 40 64 40 35 0 49 5 59 20
10 17 23 20 81 20 48 0 72 -4 81 -15z m1080 -40 c17 -21 -4 -45 -40 -45 -15 0
-33 7 -40 15 -17 21 4 45 40 45 15 0 33 -7 40 -15z m77 -50 c1 -5 -2 -17 -7
-25 -8 -13 -11 -13 -26 2 -9 9 -13 21 -9 28 8 13 37 10 42 -5z m-1040 -45 c5
-19 14 -20 280 -20 266 0 275 -1 280 -20 4 -15 14 -20 40 -20 26 0 36 -5 40
-20 4 -15 14 -20 40 -20 26 0 36 -5 40 -20 3 -11 12 -20 20 -20 8 0 17 -9 20
-20 3 -11 12 -20 20 -20 8 0 17 -9 20 -20 3 -11 12 -20 20 -20 8 0 17 -9 20
-19 3 -11 14 -21 25 -24 16 -5 19 -13 16 -44 -3 -35 -6 -38 -34 -41 -22 -2
-34 -9 -37 -23 -3 -10 -12 -19 -20 -19 -8 0 -17 -9 -20 -20 -3 -11 -12 -20
-20 -20 -8 0 -17 -9 -20 -20 -4 -15 -14 -20 -41 -20 -26 0 -36 -4 -36 -16 0
-9 -9 -18 -20 -21 -17 -4 -20 -14 -20 -54 l0 -49 36 0 c27 0 37 -5 41 -20 5
-19 14 -20 160 -20 147 0 155 -1 160 -20 3 -12 18 -23 37 -28 30 -8 31 -11 34
-64 2 -46 7 -57 22 -61 18 -5 20 -14 20 -80 0 -66 2 -75 20 -80 17 -4 20 -14
20 -61 l0 -56 -80 0 c-73 0 -80 2 -80 20 0 19 -7 20 -100 20 -80 0 -102 3
-106 15 -5 13 -34 15 -174 15 -159 0 -168 -1 -173 -20 -5 -20 -14 -20 -440
-20 -358 0 -436 -2 -440 -14 -3 -8 -27 -15 -58 -18 -33 -4 -55 -11 -61 -22 -7
-12 -24 -16 -64 -16 -47 0 -57 -3 -61 -20 -5 -19 -14 -20 -160 -20 -146 0
-155 -1 -160 -20 -5 -17 -14 -20 -64 -20 -52 0 -59 -2 -59 -20 0 -13 -7 -20
-20 -20 -26 0 -26 30 0 37 17 5 20 14 20 60 0 46 3 56 20 60 17 5 20 14 20 60
0 46 3 56 20 60 18 5 20 14 20 103 0 89 -2 98 -20 103 -19 5 -20 14 -20 177 0
163 1 172 20 177 15 4 20 14 20 40 0 26 5 36 20 40 15 4 20 14 20 40 0 26 5
36 20 40 11 3 20 12 20 20 0 8 9 17 19 20 11 3 21 13 24 24 3 10 12 19 20 19
8 0 17 9 20 20 3 11 12 20 20 20 8 0 17 9 20 20 4 17 14 20 60 20 46 0 55 3
60 20 5 18 14 20 80 20 66 0 75 2 80 20 5 19 14 20 140 20 126 0 135 1 140 20
5 19 14 20 137 20 123 0 132 -1 137 -20z m1121 -139 c4 -41 -11 -60 -33 -41
-15 13 -21 61 -8 74 17 16 38 -1 41 -33z m-2670 -34 c4 -37 -63 -111 -78 -87
-14 23 -12 31 10 37 15 4 20 14 20 37 0 18 3 36 7 40 15 15 38 0 41 -27z
m2745 -54 c4 -2 7 -19 7 -37 0 -25 5 -35 20 -39 15 -4 20 -14 20 -40 0 -26 5
-36 20 -40 15 -4 20 -14 20 -40 0 -26 5 -36 20 -40 22 -6 25 -15 10 -37 -9
-13 -13 -12 -29 8 -11 12 -30 22 -44 22 -13 0 -31 7 -38 16 -11 14 -10 19 10
36 l24 19 -21 15 c-14 10 -22 26 -22 45 0 35 -6 36 -30 7 -15 -19 -20 -20 -34
-9 -19 16 -22 101 -4 119 10 10 48 8 71 -5z m-2275 -86 c4 -21 -25 -34 -40
-19 -8 8 -8 16 2 27 16 19 34 15 38 -8z m-550 -25 c4 -36 9 -39 27 -16 18 25
225 33 244 10 25 -30 -4 -46 -78 -46 -55 0 -68 -3 -79 -20 -7 -11 -23 -20 -37
-20 -40 0 -75 -44 -75 -95 0 -34 -5 -48 -20 -57 -11 -7 -20 -24 -20 -38 0 -17
-18 -42 -60 -83 -55 -53 -60 -61 -60 -101 0 -27 -6 -48 -16 -57 -22 -18 -34 3
-34 64 0 41 3 50 20 54 17 5 20 14 20 60 0 46 3 56 20 60 15 4 20 14 20 40 0
26 5 36 20 40 18 5 20 14 20 80 0 66 2 75 20 80 15 4 20 14 20 37 0 37 7 48
30 44 9 -2 16 -16 18 -36z m510 -56 c2 -11 -4 -19 -17 -23 -12 -3 -21 -13 -21
-24 0 -10 -8 -22 -17 -28 -17 -9 -17 -11 0 -23 15 -12 17 -27 15 -113 l-3
-100 -29 -3 c-16 -2 -37 -13 -46 -25 -15 -18 -20 -19 -34 -8 -9 7 -16 26 -16
42 0 34 -10 37 -28 9 -15 -24 -64 -27 -83 -4 -10 13 -8 19 14 40 15 14 27 34
27 45 0 26 39 69 62 69 32 0 48 12 48 37 0 18 17 43 53 79 53 54 69 61 75 30z
m2479 -161 c1 -5 -2 -17 -7 -25 -8 -13 -11 -13 -26 2 -9 9 -13 21 -9 28 8 13
37 10 42 -5z m120 -244 c3 -11 13 -21 24 -24 16 -4 19 -14 19 -60 0 -46 3 -55
20 -60 17 -4 20 -14 20 -60 0 -46 3 -55 20 -60 18 -4 20 -13 20 -74 0 -79 -10
-104 -34 -84 -10 9 -16 30 -16 60 0 35 -5 49 -20 59 -15 9 -20 23 -20 60 0 36
-5 50 -20 60 -15 9 -20 23 -20 60 0 36 -5 50 -20 60 -19 12 -28 61 -13 75 13
13 35 7 40 -12z m-2877 -26 c11 -13 7 -21 -21 -50 -37 -38 -78 -46 -99 -20
-17 21 4 45 39 45 15 0 31 8 39 20 15 24 25 25 42 5z m238 -37 c37 -37 -27
-133 -85 -126 -44 5 -40 33 14 88 53 55 54 55 71 38z m-673 -168 c7 -11 -12
-40 -25 -40 -11 0 -21 30 -14 41 7 12 31 11 39 -1z m3353 -112 c22 -22 13 -62
-22 -95 -28 -28 -41 -33 -79 -33 -34 0 -49 5 -60 20 -8 11 -28 23 -45 26 -29
6 -32 10 -32 45 0 33 3 39 20 39 11 0 23 -7 26 -15 4 -11 21 -15 55 -15 38 0
52 -4 61 -20 18 -28 28 -25 28 8 0 26 15 52 30 52 3 0 11 -5 18 -12z m-2720
-51 c4 -21 -25 -34 -40 -19 -8 8 -8 16 2 27 16 19 34 15 38 -8z m1327 -52 c0
-17 -8 -20 -53 -23 -55 -3 -82 8 -82 35 0 11 14 13 68 11 59 -3 67 -5 67 -23z
m-997 -57 l-3 -43 -57 -3 -58 -3 0 -34 c0 -29 -4 -35 -21 -35 -12 0 -23 -8
-26 -20 -3 -11 -12 -20 -20 -20 -8 0 -17 -9 -20 -20 -6 -24 -43 -27 -43 -4 0
9 -9 18 -20 21 -15 4 -20 14 -20 40 0 26 5 36 20 40 16 4 20 14 20 44 0 32 4
39 19 39 10 0 21 -9 24 -20 7 -28 67 -28 74 -1 3 11 13 21 24 24 10 3 19 12
19 21 0 12 11 16 46 16 l45 0 -3 -42z m2510 -73 c3 -42 -11 -63 -32 -46 -16
14 -22 62 -9 75 16 15 38 0 41 -29z m-2923 -160 l0 -119 -29 -7 c-25 -7 -35
-4 -58 19 -24 23 -27 35 -28 84 0 41 4 59 15 66 9 4 19 21 23 37 8 28 40 47
67 41 6 -2 10 -50 10 -121z m413 58 c3 -19 -1 -23 -22 -23 -21 0 -26 5 -26 26
0 21 4 25 23 22 14 -2 23 -11 25 -25z m2550 -121 c2 -126 1 -134 -17 -139 -18
-4 -21 -15 -23 -82 -3 -68 -5 -76 -23 -76 -19 0 -20 8 -23 112 -2 104 -1 113
18 125 18 11 20 23 20 99 0 89 4 102 30 97 12 -3 15 -26 18 -136z m-1318 62
c0 -27 5 -37 20 -41 15 -4 20 -14 20 -40 0 -26 5 -36 20 -40 15 -4 20 -14 20
-40 0 -26 5 -36 20 -40 17 -5 20 -14 20 -60 0 -46 3 -56 20 -60 18 -5 20 -14
20 -84 l0 -79 -36 0 c-27 0 -37 -5 -41 -19 -3 -11 -13 -21 -24 -24 -10 -3 -19
-12 -19 -21 0 -13 -11 -16 -56 -16 -47 0 -57 -3 -61 -20 -7 -26 -39 -26 -46 0
-5 18 -14 20 -77 20 -63 0 -72 -2 -77 -20 -4 -16 -14 -20 -44 -20 l-39 0 0 59
c0 50 3 59 20 64 11 3 20 12 20 20 0 8 9 17 20 20 11 3 20 12 20 20 0 8 9 17
20 20 15 4 20 14 20 37 0 23 -5 33 -20 37 -11 3 -20 13 -20 23 0 10 9 20 20
23 15 4 20 14 20 40 0 26 5 36 20 40 17 4 20 14 20 60 0 46 3 55 20 60 15 4
20 14 20 40 0 26 5 36 20 40 11 3 20 12 20 21 0 13 12 16 60 16 l60 0 0 -36z
m-1280 -175 c0 -52 3 -62 20 -66 17 -5 20 -14 20 -60 0 -46 3 -56 20 -60 11
-3 20 -12 20 -20 0 -8 9 -17 20 -20 11 -3 20 -12 20 -20 0 -8 9 -17 19 -20 11
-3 21 -13 24 -24 4 -14 14 -19 40 -19 26 0 36 -5 40 -20 3 -12 14 -20 26 -20
12 0 21 -6 21 -15 0 -23 335 -22 344 1 4 11 17 14 48 12 42 -3 43 -4 46 -41 3
-32 0 -39 -17 -44 -12 -3 -21 -12 -21 -20 0 -8 -9 -17 -20 -20 -11 -3 -20 -12
-20 -20 0 -8 -9 -17 -19 -20 -14 -4 -21 -15 -23 -42 -3 -34 -5 -36 -39 -39
-27 -2 -38 -9 -42 -23 -5 -17 -14 -19 -100 -19 -86 0 -95 -2 -100 -20 -5 -18
-14 -20 -100 -20 -86 0 -95 -2 -100 -20 -5 -19 -14 -20 -141 -20 l-136 0 0
-30 c0 -28 1 -29 58 -32 l57 -3 3 -37 c3 -41 16 -50 25 -17 4 15 12 20 29 17
21 -3 23 -9 26 -59 2 -47 6 -58 22 -62 15 -4 20 -14 20 -40 0 -34 2 -36 38
-39 l37 -3 3 -123 c2 -115 1 -124 -17 -129 -10 -3 -21 -13 -24 -24 -7 -25 -33
-24 -49 1 -7 11 -24 20 -38 20 -28 0 -80 48 -80 74 0 9 7 19 15 22 21 8 19 21
-5 27 -15 4 -20 14 -20 39 0 34 -1 35 -52 44 -52 9 -53 10 -56 47 -2 23 -8 37
-17 37 -20 0 -22 7 -30 88 -7 69 -6 74 14 79 33 8 25 21 -16 25 -36 3 -38 5
-41 39 -2 27 -9 38 -23 42 -15 4 -19 14 -19 50 0 70 11 109 32 114 17 5 18 22
18 302 0 164 3 301 7 304 3 4 57 7 120 7 l113 0 0 -61z m2198 -247 c2 -7 -5
-16 -17 -19 -19 -5 -21 -12 -21 -83 0 -69 2 -78 20 -83 18 -5 20 -14 20 -76 0
-57 -3 -73 -16 -78 -10 -4 -22 1 -29 10 -9 13 -28 17 -77 17 -57 0 -66 -3 -71
-20 -4 -17 -14 -20 -67 -20 -53 0 -63 3 -67 20 -3 11 -12 20 -20 20 -8 0 -17
9 -20 20 -3 11 -12 20 -20 20 -8 0 -17 9 -20 19 -3 11 -13 21 -24 24 -10 3
-19 12 -19 20 0 8 -9 17 -20 20 -11 3 -20 12 -20 20 0 8 -9 17 -21 20 -17 5
-20 12 -17 44 l3 38 178 3 c169 2 179 4 184 22 4 15 14 20 40 20 27 0 36 5 40
21 5 16 12 19 41 17 20 -2 37 -9 40 -16z m317 -74 c3 -13 4 -77 3 -143 -3
-112 -4 -120 -23 -120 -19 0 -20 8 -23 129 -2 86 1 133 9 142 17 20 28 17 34
-8z m-117 -70 c19 -19 16 -262 -3 -278 -12 -10 -18 -10 -30 0 -12 10 -15 39
-15 139 0 118 7 151 30 151 3 0 11 -5 18 -12z m-2800 -54 c2 -12 12 -24 23
-27 14 -4 19 -14 19 -40 0 -26 5 -36 20 -40 23 -6 27 -35 5 -43 -11 -5 -15
-21 -15 -61 0 -46 -3 -56 -20 -60 -24 -6 -27 -23 -4 -23 9 0 18 -9 21 -19 3
-11 14 -21 25 -24 16 -5 19 -13 16 -44 -3 -36 -5 -38 -41 -41 -32 -3 -39 0
-44 17 -3 12 -12 21 -20 21 -8 0 -17 9 -20 20 -3 11 -12 20 -20 20 -8 0 -17 9
-20 19 -3 11 -13 21 -24 24 -11 3 -19 14 -19 26 0 11 -10 29 -22 41 -19 18
-22 31 -22 117 l-1 98 36 3 c27 2 38 9 42 23 5 17 12 20 44 17 30 -2 39 -7 41
-24z m2049 -33 c3 -11 14 -21 25 -24 16 -5 19 -13 16 -49 l-3 -43 -63 -3 c-56
-3 -64 -1 -69 17 -3 10 -14 22 -25 24 -18 5 -20 11 -13 44 4 21 9 41 11 45 3
5 30 8 61 8 46 0 56 -3 60 -19z m829 -165 c9 -37 1 -61 -21 -61 -24 0 -33 48
-14 71 17 20 28 17 35 -10z m-1429 -116 c6 -24 63 -29 63 -6 0 20 90 28 290
24 l165 -3 0 -25 c0 -21 -5 -25 -35 -28 -19 -2 -39 -10 -43 -18 -6 -11 -32
-14 -107 -14 -93 0 -100 -1 -100 -20 0 -19 7 -20 135 -20 l135 0 11 -27 c16
-42 8 -58 -33 -61 -26 -2 -37 -9 -41 -23 -4 -16 -14 -19 -61 -19 -31 0 -56 -4
-56 -10 0 -5 17 -10 38 -10 20 0 61 -3 90 -7 49 -5 54 -4 59 16 4 16 13 21 40
21 27 0 36 5 40 21 4 14 12 19 27 17 20 -3 21 -9 24 -121 2 -110 1 -119 -17
-124 -10 -3 -21 -13 -24 -24 -8 -28 -87 -28 -94 1 -4 16 -14 20 -53 20 -40 0
-49 -3 -53 -21 -6 -21 -9 -21 -127 -14 -67 4 -191 4 -276 0 -126 -6 -154 -10
-154 -22 0 -8 -9 -17 -20 -20 -17 -4 -20 -14 -20 -54 l0 -49 36 0 c27 0 37 -5
41 -20 4 -15 14 -20 40 -20 26 0 36 -5 40 -20 7 -26 19 -26 26 0 3 11 12 20
21 20 9 0 21 -9 28 -20 16 -25 102 -29 112 -5 4 10 20 15 51 15 36 0 50 5 67
25 19 22 30 25 89 25 59 0 67 2 72 20 5 19 12 21 89 18 l83 -3 3 -36 c2 -27 9
-38 23 -42 28 -8 28 -87 -1 -94 -14 -4 -20 -14 -20 -33 0 -19 6 -29 20 -33 15
-4 20 -14 20 -39 0 -50 -14 -58 -98 -58 -65 0 -74 2 -79 20 -3 11 -12 20 -20
20 -8 0 -17 9 -20 20 -7 28 -59 28 -66 0 -4 -16 -14 -20 -47 -20 -33 0 -43 4
-47 20 -7 26 -19 26 -26 0 -5 -18 -14 -20 -87 -20 -73 0 -82 2 -87 20 -7 26
-19 26 -26 0 -3 -11 -12 -20 -20 -20 -8 0 -17 -9 -20 -20 -5 -19 -14 -20 -127
-20 -113 0 -122 1 -127 20 -3 11 -12 20 -20 20 -8 0 -17 9 -20 19 -3 11 -13
21 -24 24 -17 5 -19 15 -19 87 0 73 2 82 20 87 15 4 20 14 20 40 0 26 5 36 20
40 11 3 20 9 20 13 0 4 -9 10 -20 13 -11 3 -20 12 -20 20 0 11 -12 17 -37 19
-37 3 -38 4 -41 46 -3 37 0 44 17 49 29 7 29 58 1 66 -12 3 -20 14 -20 27 0
13 8 24 20 27 11 3 20 12 20 19 0 10 13 14 44 14 36 0 45 -4 49 -22 6 -20 10
-21 89 -15 46 4 158 7 251 7 104 0 167 4 167 10 0 6 -16 10 -36 10 -27 0 -37
5 -41 20 -5 19 -14 20 -154 20 -121 0 -149 -3 -149 -14 0 -8 -7 -16 -15 -20
-20 -7 -45 3 -45 19 0 7 -10 15 -21 18 -20 5 -22 10 -16 66 6 57 5 61 -13 61
-12 0 -23 7 -26 15 -4 8 -13 15 -20 15 -20 0 -29 27 -14 45 7 8 25 15 40 15
19 0 29 6 33 20 5 18 14 20 107 20 93 0 102 -2 107 -20z m1387 4 c9 -24 7 -97
-3 -113 -18 -27 -41 6 -41 58 0 58 29 95 44 55z m9 -165 c8 -11 28 -24 43 -28
42 -11 37 -35 -7 -39 -27 -2 -38 -9 -42 -23 -3 -10 -12 -19 -21 -19 -9 0 -16
-7 -16 -16 0 -9 -9 -18 -20 -21 -15 -4 -20 -14 -20 -37 0 -64 -14 -65 -76 -3
l-57 57 9 52 c9 50 11 53 41 56 24 2 35 -2 45 -17 8 -13 23 -21 40 -21 34 0
35 6 6 30 -19 15 -20 20 -9 34 19 23 67 20 84 -5z m-1878 -169 c0 -22 -5 -25
-43 -28 -44 -3 -61 11 -48 44 4 11 17 14 48 12 38 -3 43 -6 43 -28z m1826
-106 c12 -7 11 -95 -1 -114 -9 -13 -13 -12 -29 8 -11 12 -30 22 -43 22 -31 0
-48 18 -48 50 0 40 19 53 68 46 24 -3 48 -8 53 -12z m-3153 -76 c19 -19 14
-66 -8 -80 -12 -8 -20 -24 -20 -38 0 -17 -13 -38 -40 -63 -25 -23 -40 -45 -40
-60 0 -33 -25 -54 -45 -37 -17 14 -10 69 11 86 8 6 14 22 14 36 0 15 14 37 40
61 25 22 40 45 40 60 0 21 16 47 30 47 3 0 11 -5 18 -12z m122 -123 c11 -13 7
-21 -24 -52 -34 -34 -38 -36 -53 -20 -15 15 -14 19 18 52 39 40 42 41 59 20z
m2924 -7 l15 -21 19 23 c11 13 24 20 30 16 19 -11 14 -37 -8 -43 -16 -4 -20
-14 -20 -44 0 -29 4 -39 16 -39 9 0 18 -9 21 -19 3 -11 13 -21 24 -24 10 -3
19 -12 19 -21 0 -9 6 -16 13 -16 7 0 28 -12 45 -26 30 -25 32 -31 32 -94 0
-75 -16 -104 -45 -80 -11 9 -15 32 -15 81 l0 69 -30 0 c-26 0 -30 -4 -30 -28
0 -34 -16 -52 -48 -52 -13 0 -32 -10 -43 -22 l-19 -23 -19 23 c-11 12 -30 22
-43 22 -30 0 -48 17 -48 47 0 15 -15 38 -40 60 l-40 37 0 86 c0 54 5 91 12 98
8 8 45 12 99 12 79 0 89 -2 103 -22z m-3006 -122 c2 -9 -10 -31 -27 -48 -29
-30 -32 -31 -48 -15 -15 15 -14 19 18 52 36 36 52 40 57 11z m3319 -126 c5
-17 14 -20 60 -20 46 0 56 -3 60 -19 3 -11 13 -21 23 -24 20 -5 33 -56 18 -74
-6 -7 -22 -13 -37 -13 -15 0 -31 -8 -39 -20 -19 -30 -60 -25 -98 13 -28 26
-34 39 -34 75 0 33 -6 48 -22 63 -20 16 -21 20 -8 29 27 18 71 12 77 -10z
m-2839 -77 c2 -12 12 -23 23 -26 24 -6 27 -64 4 -73 -36 -14 -90 87 -62 115
16 16 31 9 35 -16z"/>
<path d="M3210 4280 c0 -5 5 -10 10 -10 6 0 10 5 10 10 0 6 -4 10 -10 10 -5 0
-10 -4 -10 -10z"/>
<path d="M1570 3394 c0 -9 -9 -18 -20 -21 -18 -5 -20 -14 -20 -94 l0 -89 49 0
c40 0 50 3 54 20 3 11 12 20 20 20 8 0 17 9 20 20 3 11 12 20 21 20 13 0 16
11 16 50 0 39 -3 50 -16 50 -9 0 -18 9 -21 20 -4 17 -14 20 -54 20 -38 0 -49
-4 -49 -16z"/>
<path d="M1490 2980 c0 -21 5 -30 16 -30 9 0 18 -9 21 -20 3 -11 9 -20 13 -20
4 0 10 9 13 20 3 11 12 20 21 20 23 0 20 17 -4 23 -11 3 -20 12 -20 21 0 11
-9 16 -30 16 -27 0 -30 -3 -30 -30z"/>
<path d="M1050 3280 c0 -5 5 -10 10 -10 6 0 10 5 10 10 0 6 -4 10 -10 10 -5 0
-10 -4 -10 -10z"/>
<path d="M1490 1040 c0 -5 5 -10 10 -10 6 0 10 5 10 10 0 6 -4 10 -10 10 -5 0
-10 -4 -10 -10z"/>
<path d="M2240 1360 c0 -17 7 -20 40 -20 29 0 40 -4 40 -15 0 -8 6 -15 14 -15
8 0 16 7 20 15 8 22 82 20 96 -2 10 -17 10 -17 20 0 6 9 20 17 30 17 13 0 20
7 20 20 0 19 -7 20 -140 20 -133 0 -140 -1 -140 -20z"/>
<path d="M130 1080 c0 -5 5 -10 10 -10 6 0 10 5 10 10 0 6 -4 10 -10 10 -5 0
-10 -4 -10 -10z"/>
<path d="M410 1080 c0 -5 5 -10 10 -10 6 0 10 5 10 10 0 6 -4 10 -10 10 -5 0
-10 -4 -10 -10z"/>
<path d="M313 1024 c-29 -31 -29 -34 2 -34 20 0 75 40 75 55 0 15 -59 -1 -77
-21z"/>
<path d="M210 840 c0 -5 5 -10 10 -10 6 0 10 5 10 10 0 6 -4 10 -10 10 -5 0
-10 -4 -10 -10z"/>
<path d="M170 780 c0 -16 5 -30 10 -30 6 0 10 14 10 30 0 17 -4 30 -10 30 -5
0 -10 -13 -10 -30z"/>
<path d="M130 720 c0 -5 5 -10 10 -10 6 0 10 5 10 10 0 6 -4 10 -10 10 -5 0
-10 -4 -10 -10z"/>
</g>
</svg>
