<svg xmlns="http://www.w3.org/2000/svg" xmlns:xlink="http://www.w3.org/1999/xlink" width="1024" zoomAndPan="magnify" viewBox="0 0 768 576" height="768" preserveAspectRatio="xMidYMid meet" version="1.0"><defs><g/><clipPath id="d38870e2f4"><path d="M 122.246094 104.941406 L 645.746094 104.941406 L 645.746094 520.441406 L 122.246094 520.441406 Z M 122.246094 104.941406 " clip-rule="nonzero"/></clipPath></defs><rect x="-76.8" width="921.6" fill="#ffffff" y="-57.6" height="691.2" fill-opacity="1"/><rect x="-76.8" width="921.6" fill="#ffffff" y="-57.6" height="691.2" fill-opacity="1"/><rect x="-76.8" width="921.6" fill="#fbfefe" y="-57.6" height="691.2" fill-opacity="1"/><g clip-path="url(#d38870e2f4)"><path fill="#3caaf0" d="M 645.75 104.984375 L 627.574219 441.886719 L 553.113281 440.433594 L 433.898438 520.398438 L 467.023438 438.769531 L 152.570312 432.746094 L 122.246094 130.738281 Z M 645.75 104.984375 " fill-opacity="1" fill-rule="nonzero"/></g><g fill="#ffffff" fill-opacity="1"><g transform="translate(201.486085, 213.74254)"><g><path d="M 26.484375 1.03125 C 21.640625 0.988281 17.34375 -0.195312 13.59375 -2.53125 C 9.851562 -4.875 7.0625 -8.085938 5.21875 -12.171875 C 3.375 -16.253906 2.660156 -20.753906 3.078125 -25.671875 L 3.234375 -27.71875 C 3.742188 -33.113281 5.3125 -38.0625 7.9375 -42.5625 C 10.570312 -47.070312 13.953125 -50.546875 18.078125 -52.984375 C 22.210938 -55.429688 26.789062 -56.585938 31.8125 -56.453125 C 38.945312 -56.316406 44.347656 -53.695312 48.015625 -48.59375 C 51.691406 -43.488281 53.085938 -37.023438 52.203125 -29.203125 L 51.390625 -22.90625 L 17.421875 -22.90625 C 17.285156 -19.3125 18.15625 -16.4375 20.03125 -14.28125 C 21.90625 -12.132812 24.46875 -11.03125 27.71875 -10.96875 C 32.976562 -10.832031 37.585938 -12.863281 41.546875 -17.0625 L 48.15625 -8.859375 C 46.070312 -5.722656 43.066406 -3.273438 39.140625 -1.515625 C 35.210938 0.242188 30.992188 1.09375 26.484375 1.03125 Z M 31.09375 -44.515625 C 28.425781 -44.585938 26.0625 -43.75 24 -42 C 21.9375 -40.257812 20.082031 -37.238281 18.4375 -32.9375 L 38.328125 -32.9375 L 38.625 -34.28125 C 38.832031 -35.644531 38.851562 -36.941406 38.6875 -38.171875 C 38.34375 -40.148438 37.503906 -41.691406 36.171875 -42.796875 C 34.835938 -43.910156 33.144531 -44.484375 31.09375 -44.515625 Z M 31.09375 -44.515625 "/></g></g></g><g fill="#ffffff" fill-opacity="1"><g transform="translate(257.012633, 213.74254)"><g><path d="M 27.671875 -56.515625 C 32.828125 -56.367188 36.992188 -54.300781 40.171875 -50.3125 L 45.59375 -78.6875 L 60.09375 -78.6875 L 46.46875 0 L 33.5625 0 L 34.375 -5.9375 C 30.238281 -1.125 25.421875 1.210938 19.921875 1.078125 C 16.472656 1.046875 13.453125 0.144531 10.859375 -1.625 C 8.265625 -3.40625 6.257812 -5.960938 4.84375 -9.296875 C 3.425781 -12.628906 2.648438 -16.34375 2.515625 -20.4375 C 2.410156 -22.59375 2.457031 -24.675781 2.65625 -26.6875 L 2.96875 -29 C 3.789062 -34.664062 5.367188 -39.648438 7.703125 -43.953125 C 10.046875 -48.253906 12.914062 -51.445312 16.3125 -53.53125 C 19.71875 -55.613281 23.503906 -56.609375 27.671875 -56.515625 Z M 17.15625 -26.6875 C 16.882812 -24.09375 16.800781 -21.910156 16.90625 -20.140625 C 17.25 -14.128906 19.675781 -11.070312 24.1875 -10.96875 C 28.25 -10.789062 31.78125 -12.703125 34.78125 -16.703125 L 38.734375 -38.734375 C 37.398438 -42.390625 34.734375 -44.300781 30.734375 -44.46875 C 27.222656 -44.570312 24.296875 -43.210938 21.953125 -40.390625 C 19.609375 -37.578125 18.007812 -33.007812 17.15625 -26.6875 Z M 17.15625 -26.6875 "/></g></g></g><g fill="#ffffff" fill-opacity="1"><g transform="translate(314.84425, 213.74254)"><g><path d="M 50.203125 -20.1875 L 63.375 -55.4375 L 77.765625 -55.4375 L 54.453125 0 L 42.375 0 L 38.265625 -34.6875 L 22.078125 0 L 9.984375 0 L 5.890625 -55.4375 L 19.421875 -55.4375 L 20.28125 -20.546875 L 36.125 -55.4375 L 46.5625 -55.4375 Z M 50.203125 -20.1875 "/></g></g></g><g fill="#ffffff" fill-opacity="1"><g transform="translate(390.143167, 213.74254)"><g><path d="M 32.21875 0 C 31.78125 -1.394531 31.59375 -3.066406 31.65625 -5.015625 C 27.488281 -0.847656 22.773438 1.164062 17.515625 1.03125 C 12.671875 0.957031 8.648438 -0.617188 5.453125 -3.703125 C 2.265625 -6.796875 0.769531 -10.617188 0.96875 -15.171875 C 1.207031 -21.210938 3.742188 -25.847656 8.578125 -29.078125 C 13.410156 -32.304688 19.894531 -33.921875 28.03125 -33.921875 L 34.78125 -33.8125 L 35.5 -37.140625 C 35.707031 -38.265625 35.757812 -39.34375 35.65625 -40.375 C 35.488281 -41.976562 34.882812 -43.234375 33.84375 -44.140625 C 32.800781 -45.046875 31.425781 -45.515625 29.71875 -45.546875 C 27.457031 -45.609375 25.539062 -45.050781 23.96875 -43.875 C 22.40625 -42.695312 21.398438 -41 20.953125 -38.78125 L 6.453125 -38.734375 C 6.691406 -44.023438 9.125 -48.316406 13.75 -51.609375 C 18.382812 -54.910156 24.097656 -56.523438 30.890625 -56.453125 C 37.171875 -56.316406 42.085938 -54.445312 45.640625 -50.84375 C 49.191406 -47.238281 50.679688 -42.601562 50.109375 -36.9375 L 45.859375 -10.40625 L 45.59375 -7.125 C 45.53125 -4.695312 45.820312 -2.644531 46.46875 -0.96875 L 46.421875 0 Z M 21.109375 -10.1875 C 25.273438 -10.050781 28.910156 -11.863281 32.015625 -15.625 L 33.8125 -25.203125 L 28.796875 -25.25 C 23.460938 -25.113281 19.617188 -23.492188 17.265625 -20.390625 C 16.410156 -19.265625 15.878906 -17.878906 15.671875 -16.234375 C 15.398438 -14.390625 15.785156 -12.929688 16.828125 -11.859375 C 17.867188 -10.785156 19.296875 -10.226562 21.109375 -10.1875 Z M 21.109375 -10.1875 "/></g></g></g><g fill="#ffffff" fill-opacity="1"><g transform="translate(445.208701, 213.74254)"><g><path d="M 38.109375 -41.546875 C 36.128906 -41.890625 34.507812 -42.0625 33.25 -42.0625 C 28.09375 -42.195312 24.007812 -40.265625 21 -36.265625 L 14.59375 0 L 0.15625 0 L 9.78125 -55.4375 L 23.359375 -55.484375 L 22.03125 -48.71875 C 25.507812 -53.945312 29.8125 -56.5625 34.9375 -56.5625 C 36.375 -56.5625 38.046875 -56.320312 39.953125 -55.84375 Z M 38.109375 -41.546875 "/></g></g></g><g fill="#ffffff" fill-opacity="1"><g transform="translate(482.858159, 213.74254)"><g><path d="M 27.671875 -56.515625 C 32.828125 -56.367188 36.992188 -54.300781 40.171875 -50.3125 L 45.59375 -78.6875 L 60.09375 -78.6875 L 46.46875 0 L 33.5625 0 L 34.375 -5.9375 C 30.238281 -1.125 25.421875 1.210938 19.921875 1.078125 C 16.472656 1.046875 13.453125 0.144531 10.859375 -1.625 C 8.265625 -3.40625 6.257812 -5.960938 4.84375 -9.296875 C 3.425781 -12.628906 2.648438 -16.34375 2.515625 -20.4375 C 2.410156 -22.59375 2.457031 -24.675781 2.65625 -26.6875 L 2.96875 -29 C 3.789062 -34.664062 5.367188 -39.648438 7.703125 -43.953125 C 10.046875 -48.253906 12.914062 -51.445312 16.3125 -53.53125 C 19.71875 -55.613281 23.503906 -56.609375 27.671875 -56.515625 Z M 17.15625 -26.6875 C 16.882812 -24.09375 16.800781 -21.910156 16.90625 -20.140625 C 17.25 -14.128906 19.675781 -11.070312 24.1875 -10.96875 C 28.25 -10.789062 31.78125 -12.703125 34.78125 -16.703125 L 38.734375 -38.734375 C 37.398438 -42.390625 34.734375 -44.300781 30.734375 -44.46875 C 27.222656 -44.570312 24.296875 -43.210938 21.953125 -40.390625 C 19.609375 -37.578125 18.007812 -33.007812 17.15625 -26.6875 Z M 17.15625 -26.6875 "/></g></g></g><g fill="#ffffff" fill-opacity="1"><g transform="translate(540.689776, 213.74254)"><g/></g></g><g fill="#ffffff" fill-opacity="1"><g transform="translate(253.376708, 311.242536)"><g><path d="M 32.28125 -15.625 C 32.820312 -18.351562 30.925781 -20.332031 26.59375 -21.5625 L 21.921875 -22.75 C 10.890625 -25.789062 5.53125 -31.148438 5.84375 -38.828125 C 6.007812 -44.054688 8.320312 -48.316406 12.78125 -51.609375 C 17.238281 -54.910156 22.609375 -56.523438 28.890625 -56.453125 C 35.140625 -56.390625 40.191406 -54.734375 44.046875 -51.484375 C 47.910156 -48.242188 49.878906 -43.925781 49.953125 -38.53125 L 35.609375 -38.578125 C 35.671875 -43.328125 33.3125 -45.734375 28.53125 -45.796875 C 26.28125 -45.796875 24.328125 -45.234375 22.671875 -44.109375 C 21.015625 -42.984375 20 -41.460938 19.625 -39.546875 C 19.113281 -36.816406 21.179688 -34.890625 25.828125 -33.765625 L 27.875 -33.296875 C 32.582031 -32.171875 36.179688 -30.878906 38.671875 -29.421875 C 41.171875 -27.972656 43.09375 -26.171875 44.4375 -24.015625 C 45.789062 -21.867188 46.414062 -19.296875 46.3125 -16.296875 C 46.207031 -12.773438 45.070312 -9.695312 42.90625 -7.0625 C 40.738281 -4.4375 37.765625 -2.40625 33.984375 -0.96875 C 30.210938 0.457031 26.242188 1.125 22.078125 1.03125 C 15.929688 0.957031 10.804688 -0.8125 6.703125 -4.28125 C 2.609375 -7.75 0.53125 -12.226562 0.46875 -17.71875 L 14.09375 -17.625 C 14.226562 -12.332031 17.0625 -9.648438 22.59375 -9.578125 C 25.257812 -9.578125 27.453125 -10.125 29.171875 -11.21875 C 30.898438 -12.3125 31.9375 -13.78125 32.28125 -15.625 Z M 32.28125 -15.625 "/></g></g></g><g fill="#ffffff" fill-opacity="1"><g transform="translate(306.188397, 311.242536)"><g><path d="M 23.203125 -55.484375 L 22.03125 -49.1875 C 26.5 -54.164062 31.910156 -56.585938 38.265625 -56.453125 C 41.679688 -56.390625 44.515625 -55.601562 46.765625 -54.09375 C 49.023438 -52.59375 50.546875 -50.5625 51.328125 -48 C 56.210938 -53.769531 61.953125 -56.585938 68.546875 -56.453125 C 73.640625 -56.347656 77.472656 -54.601562 80.046875 -51.21875 C 82.628906 -47.84375 83.710938 -42.960938 83.296875 -36.578125 L 83.203125 -35.296875 L 77.3125 0 L 62.8125 0 L 68.703125 -35.40625 C 68.835938 -36.664062 68.890625 -37.84375 68.859375 -38.9375 C 68.617188 -42.519531 66.566406 -44.363281 62.703125 -44.46875 C 58.742188 -44.46875 55.347656 -42.347656 52.515625 -38.109375 L 52.359375 -36.9375 L 45.90625 0 L 31.453125 0 L 37.34375 -35.296875 C 37.476562 -36.554688 37.53125 -37.734375 37.5 -38.828125 C 37.257812 -42.453125 35.226562 -44.316406 31.40625 -44.421875 C 27.75 -44.523438 24.453125 -42.800781 21.515625 -39.25 L 14.59375 0 L 0.15625 0 L 9.734375 -55.4375 Z M 23.203125 -55.484375 "/></g></g></g><g fill="#ffffff" fill-opacity="1"><g transform="translate(394.805489, 311.242536)"><g><path d="M 15.421875 0 L 0.875 0 L 10.5 -55.4375 L 25.046875 -55.4375 Z M 12.1875 -69.515625 C 12.125 -71.804688 12.875 -73.703125 14.4375 -75.203125 C 16.007812 -76.710938 17.910156 -77.46875 20.140625 -77.46875 C 22.316406 -77.53125 24.207031 -76.859375 25.8125 -75.453125 C 27.425781 -74.054688 28.265625 -72.25 28.328125 -70.03125 C 28.398438 -67.914062 27.691406 -66.070312 26.203125 -64.5 C 24.710938 -62.925781 22.773438 -62.109375 20.390625 -62.046875 C 18.234375 -61.972656 16.34375 -62.617188 14.71875 -63.984375 C 13.101562 -65.347656 12.257812 -67.191406 12.1875 -69.515625 Z M 12.1875 -69.515625 "/></g></g></g><g fill="#ffffff" fill-opacity="1"><g transform="translate(422.312644, 311.242536)"><g><path d="M 29.453125 -69.0625 L 27.046875 -55.4375 L 36.265625 -55.4375 L 34.375 -44.578125 L 25.15625 -44.578125 L 20.4375 -16.796875 C 20.238281 -15.054688 20.375 -13.722656 20.84375 -12.796875 C 21.320312 -11.878906 22.484375 -11.390625 24.328125 -11.328125 C 24.878906 -11.285156 26.347656 -11.367188 28.734375 -11.578125 L 27.71875 -0.25 C 25.15625 0.601562 22.390625 0.992188 19.421875 0.921875 C 14.671875 0.847656 11.132812 -0.632812 8.8125 -3.53125 C 6.488281 -6.4375 5.53125 -10.363281 5.9375 -15.3125 L 10.703125 -44.578125 L 2.875 -44.578125 L 4.765625 -55.4375 L 12.609375 -55.4375 L 14.953125 -69.0625 Z M 29.453125 -69.0625 "/></g></g></g><g fill="#ffffff" fill-opacity="1"><g transform="translate(457.196019, 311.242536)"><g><path d="M 22.1875 -49.28125 C 26.519531 -54.132812 31.519531 -56.523438 37.1875 -56.453125 C 42.6875 -56.316406 46.722656 -54.34375 49.296875 -50.53125 C 51.878906 -46.726562 52.847656 -41.53125 52.203125 -34.9375 L 46.359375 0 L 31.921875 0 L 37.8125 -35.09375 C 37.976562 -36.425781 38.007812 -37.65625 37.90625 -38.78125 C 37.570312 -42.46875 35.421875 -44.363281 31.453125 -44.46875 C 27.554688 -44.601562 24.140625 -42.929688 21.203125 -39.453125 L 14.25 0 L -0.203125 0 L 13.421875 -78.6875 L 27.921875 -78.6875 Z M 22.1875 -49.28125 "/></g></g></g><g fill="#fbfefe" fill-opacity="1"><g transform="translate(197.670022, 371.937513)"><g><path d="M 22.8125 -13.5 L 9.75 -13.5 L 9.75 0 L 2.953125 0 L 2.953125 -33.03125 L 24.453125 -33.03125 L 24.453125 -27.515625 L 9.75 -27.515625 L 9.75 -18.984375 L 22.8125 -18.984375 Z M 22.8125 -13.5 "/></g></g></g><g fill="#fbfefe" fill-opacity="1"><g transform="translate(225.906996, 371.937513)"><g><path d="M 1.5 -12.5 C 1.5 -14.9375 1.96875 -17.101562 2.90625 -19 C 3.84375 -20.90625 5.191406 -22.378906 6.953125 -23.421875 C 8.710938 -24.472656 10.757812 -25 13.09375 -25 C 16.40625 -25 19.109375 -23.984375 21.203125 -21.953125 C 23.296875 -19.929688 24.460938 -17.179688 24.703125 -13.703125 L 24.75 -12.015625 C 24.75 -8.253906 23.695312 -5.234375 21.59375 -2.953125 C 19.488281 -0.679688 16.664062 0.453125 13.125 0.453125 C 9.59375 0.453125 6.769531 -0.675781 4.65625 -2.9375 C 2.550781 -5.207031 1.5 -8.296875 1.5 -12.203125 Z M 8.046875 -12.015625 C 8.046875 -9.691406 8.484375 -7.910156 9.359375 -6.671875 C 10.242188 -5.441406 11.503906 -4.828125 13.140625 -4.828125 C 14.722656 -4.828125 15.957031 -5.4375 16.84375 -6.65625 C 17.738281 -7.875 18.1875 -9.820312 18.1875 -12.5 C 18.1875 -14.78125 17.738281 -16.546875 16.84375 -17.796875 C 15.957031 -19.054688 14.707031 -19.6875 13.09375 -19.6875 C 11.488281 -19.6875 10.242188 -19.0625 9.359375 -17.8125 C 8.484375 -16.570312 8.046875 -14.640625 8.046875 -12.015625 Z M 8.046875 -12.015625 "/></g></g></g><g fill="#fbfefe" fill-opacity="1"><g transform="translate(254.960528, 371.937513)"><g><path d="M 16.3125 -18.390625 C 15.414062 -18.515625 14.628906 -18.578125 13.953125 -18.578125 C 11.472656 -18.578125 9.847656 -17.738281 9.078125 -16.0625 L 9.078125 0 L 2.515625 0 L 2.515625 -24.546875 L 8.703125 -24.546875 L 8.890625 -21.609375 C 10.203125 -23.867188 12.023438 -25 14.359375 -25 C 15.085938 -25 15.769531 -24.898438 16.40625 -24.703125 Z M 16.3125 -18.390625 "/></g></g></g><g fill="#fbfefe" fill-opacity="1"><g transform="translate(274.691681, 371.937513)"><g/></g></g><g fill="#fbfefe" fill-opacity="1"><g transform="translate(289.047155, 371.937513)"><g><path d="M 8.921875 -19.421875 L 12.40625 -19.421875 C 14.070312 -19.421875 15.304688 -19.832031 16.109375 -20.65625 C 16.910156 -21.488281 17.3125 -22.59375 17.3125 -23.96875 C 17.3125 -25.300781 16.910156 -26.335938 16.109375 -27.078125 C 15.316406 -27.816406 14.226562 -28.1875 12.84375 -28.1875 C 11.582031 -28.1875 10.53125 -27.84375 9.6875 -27.15625 C 8.84375 -26.46875 8.421875 -25.570312 8.421875 -24.46875 L 1.859375 -24.46875 C 1.859375 -26.195312 2.320312 -27.742188 3.25 -29.109375 C 4.1875 -30.484375 5.488281 -31.554688 7.15625 -32.328125 C 8.820312 -33.097656 10.660156 -33.484375 12.671875 -33.484375 C 16.171875 -33.484375 18.910156 -32.644531 20.890625 -30.96875 C 22.867188 -29.300781 23.859375 -27 23.859375 -24.0625 C 23.859375 -22.550781 23.394531 -21.160156 22.46875 -19.890625 C 21.550781 -18.617188 20.34375 -17.644531 18.84375 -16.96875 C 20.707031 -16.300781 22.097656 -15.300781 23.015625 -13.96875 C 23.929688 -12.632812 24.390625 -11.0625 24.390625 -9.25 C 24.390625 -6.320312 23.316406 -3.972656 21.171875 -2.203125 C 19.035156 -0.429688 16.203125 0.453125 12.671875 0.453125 C 9.378906 0.453125 6.6875 -0.414062 4.59375 -2.15625 C 2.5 -3.894531 1.453125 -6.191406 1.453125 -9.046875 L 8 -9.046875 C 8 -7.804688 8.460938 -6.789062 9.390625 -6 C 10.328125 -5.21875 11.476562 -4.828125 12.84375 -4.828125 C 14.394531 -4.828125 15.613281 -5.238281 16.5 -6.0625 C 17.382812 -6.882812 17.828125 -7.976562 17.828125 -9.34375 C 17.828125 -12.644531 16.015625 -14.296875 12.390625 -14.296875 L 8.921875 -14.296875 Z M 8.921875 -19.421875 "/></g></g></g><g fill="#fbfefe" fill-opacity="1"><g transform="translate(318.486279, 371.937513)"><g><path d="M 16.3125 -18.390625 C 15.414062 -18.515625 14.628906 -18.578125 13.953125 -18.578125 C 11.472656 -18.578125 9.847656 -17.738281 9.078125 -16.0625 L 9.078125 0 L 2.515625 0 L 2.515625 -24.546875 L 8.703125 -24.546875 L 8.890625 -21.609375 C 10.203125 -23.867188 12.023438 -25 14.359375 -25 C 15.085938 -25 15.769531 -24.898438 16.40625 -24.703125 Z M 16.3125 -18.390625 "/></g></g></g><g fill="#fbfefe" fill-opacity="1"><g transform="translate(338.217426, 371.937513)"><g><path d="M 1.5 -12.453125 C 1.5 -16.273438 2.351562 -19.320312 4.0625 -21.59375 C 5.78125 -23.863281 8.128906 -25 11.109375 -25 C 13.503906 -25 15.476562 -24.101562 17.03125 -22.3125 L 17.03125 -34.84375 L 23.609375 -34.84375 L 23.609375 0 L 17.6875 0 L 17.375 -2.609375 C 15.738281 -0.566406 13.632812 0.453125 11.0625 0.453125 C 8.175781 0.453125 5.859375 -0.679688 4.109375 -2.953125 C 2.367188 -5.234375 1.5 -8.398438 1.5 -12.453125 Z M 8.046875 -11.96875 C 8.046875 -9.675781 8.445312 -7.914062 9.25 -6.6875 C 10.050781 -5.46875 11.21875 -4.859375 12.75 -4.859375 C 14.769531 -4.859375 16.195312 -5.710938 17.03125 -7.421875 L 17.03125 -17.109375 C 16.21875 -18.816406 14.804688 -19.671875 12.796875 -19.671875 C 9.628906 -19.671875 8.046875 -17.101562 8.046875 -11.96875 Z M 8.046875 -11.96875 "/></g></g></g><g fill="#fbfefe" fill-opacity="1"><g transform="translate(367.180224, 371.937513)"><g/></g></g><g fill="#fbfefe" fill-opacity="1"><g transform="translate(381.535692, 371.937513)"><g><path d="M 28.875 -11 C 28.613281 -7.445312 27.300781 -4.648438 24.9375 -2.609375 C 22.570312 -0.566406 19.453125 0.453125 15.578125 0.453125 C 11.347656 0.453125 8.019531 -0.96875 5.59375 -3.8125 C 3.164062 -6.664062 1.953125 -10.582031 1.953125 -15.5625 L 1.953125 -17.578125 C 1.953125 -20.753906 2.507812 -23.550781 3.625 -25.96875 C 4.75 -28.382812 6.347656 -30.238281 8.421875 -31.53125 C 10.503906 -32.832031 12.921875 -33.484375 15.671875 -33.484375 C 19.484375 -33.484375 22.550781 -32.460938 24.875 -30.421875 C 27.207031 -28.378906 28.554688 -25.507812 28.921875 -21.8125 L 22.109375 -21.8125 C 21.941406 -23.945312 21.347656 -25.492188 20.328125 -26.453125 C 19.304688 -27.421875 17.753906 -27.90625 15.671875 -27.90625 C 13.398438 -27.90625 11.703125 -27.085938 10.578125 -25.453125 C 9.453125 -23.828125 8.875 -21.304688 8.84375 -17.890625 L 8.84375 -15.40625 C 8.84375 -11.832031 9.382812 -9.222656 10.46875 -7.578125 C 11.550781 -5.929688 13.253906 -5.109375 15.578125 -5.109375 C 17.679688 -5.109375 19.25 -5.585938 20.28125 -6.546875 C 21.320312 -7.503906 21.914062 -8.988281 22.0625 -11 Z M 28.875 -11 "/></g></g></g><g fill="#fbfefe" fill-opacity="1"><g transform="translate(414.717377, 371.937513)"><g><path d="M 1.5 -12.5 C 1.5 -14.9375 1.96875 -17.101562 2.90625 -19 C 3.84375 -20.90625 5.191406 -22.378906 6.953125 -23.421875 C 8.710938 -24.472656 10.757812 -25 13.09375 -25 C 16.40625 -25 19.109375 -23.984375 21.203125 -21.953125 C 23.296875 -19.929688 24.460938 -17.179688 24.703125 -13.703125 L 24.75 -12.015625 C 24.75 -8.253906 23.695312 -5.234375 21.59375 -2.953125 C 19.488281 -0.679688 16.664062 0.453125 13.125 0.453125 C 9.59375 0.453125 6.769531 -0.675781 4.65625 -2.9375 C 2.550781 -5.207031 1.5 -8.296875 1.5 -12.203125 Z M 8.046875 -12.015625 C 8.046875 -9.691406 8.484375 -7.910156 9.359375 -6.671875 C 10.242188 -5.441406 11.503906 -4.828125 13.140625 -4.828125 C 14.722656 -4.828125 15.957031 -5.4375 16.84375 -6.65625 C 17.738281 -7.875 18.1875 -9.820312 18.1875 -12.5 C 18.1875 -14.78125 17.738281 -16.546875 16.84375 -17.796875 C 15.957031 -19.054688 14.707031 -19.6875 13.09375 -19.6875 C 11.488281 -19.6875 10.242188 -19.0625 9.359375 -17.8125 C 8.484375 -16.570312 8.046875 -14.640625 8.046875 -12.015625 Z M 8.046875 -12.015625 "/></g></g></g><g fill="#fbfefe" fill-opacity="1"><g transform="translate(443.770904, 371.937513)"><g><path d="M 17.21875 -2.5 C 15.59375 -0.53125 13.351562 0.453125 10.5 0.453125 C 7.875 0.453125 5.867188 -0.300781 4.484375 -1.8125 C 3.097656 -3.320312 2.390625 -5.535156 2.359375 -8.453125 L 2.359375 -24.546875 L 8.921875 -24.546875 L 8.921875 -8.6875 C 8.921875 -6.132812 10.082031 -4.859375 12.40625 -4.859375 C 14.625 -4.859375 16.148438 -5.628906 16.984375 -7.171875 L 16.984375 -24.546875 L 23.5625 -24.546875 L 23.5625 0 L 17.390625 0 Z M 17.21875 -2.5 "/></g></g></g><g fill="#fbfefe" fill-opacity="1"><g transform="translate(472.552244, 371.937513)"><g><path d="M 16.3125 -18.390625 C 15.414062 -18.515625 14.628906 -18.578125 13.953125 -18.578125 C 11.472656 -18.578125 9.847656 -17.738281 9.078125 -16.0625 L 9.078125 0 L 2.515625 0 L 2.515625 -24.546875 L 8.703125 -24.546875 L 8.890625 -21.609375 C 10.203125 -23.867188 12.023438 -25 14.359375 -25 C 15.085938 -25 15.769531 -24.898438 16.40625 -24.703125 Z M 16.3125 -18.390625 "/></g></g></g><g fill="#fbfefe" fill-opacity="1"><g transform="translate(492.283391, 371.937513)"><g><path d="M 10.359375 -30.578125 L 10.359375 -24.546875 L 14.5625 -24.546875 L 14.5625 -19.734375 L 10.359375 -19.734375 L 10.359375 -7.484375 C 10.359375 -6.578125 10.53125 -5.925781 10.875 -5.53125 C 11.226562 -5.132812 11.898438 -4.9375 12.890625 -4.9375 C 13.609375 -4.9375 14.25 -4.992188 14.8125 -5.109375 L 14.8125 -0.140625 C 13.53125 0.253906 12.207031 0.453125 10.84375 0.453125 C 6.25 0.453125 3.90625 -1.867188 3.8125 -6.515625 L 3.8125 -19.734375 L 0.234375 -19.734375 L 0.234375 -24.546875 L 3.8125 -24.546875 L 3.8125 -30.578125 Z M 10.359375 -30.578125 "/></g></g></g><g fill="#fbfefe" fill-opacity="1"><g transform="translate(510.767017, 371.937513)"><g/></g></g><g fill="#fbfefe" fill-opacity="1"><g transform="translate(525.122485, 371.937513)"><g><path d="M 1.5 -12.5 C 1.5 -14.9375 1.96875 -17.101562 2.90625 -19 C 3.84375 -20.90625 5.191406 -22.378906 6.953125 -23.421875 C 8.710938 -24.472656 10.757812 -25 13.09375 -25 C 16.40625 -25 19.109375 -23.984375 21.203125 -21.953125 C 23.296875 -19.929688 24.460938 -17.179688 24.703125 -13.703125 L 24.75 -12.015625 C 24.75 -8.253906 23.695312 -5.234375 21.59375 -2.953125 C 19.488281 -0.679688 16.664062 0.453125 13.125 0.453125 C 9.59375 0.453125 6.769531 -0.675781 4.65625 -2.9375 C 2.550781 -5.207031 1.5 -8.296875 1.5 -12.203125 Z M 8.046875 -12.015625 C 8.046875 -9.691406 8.484375 -7.910156 9.359375 -6.671875 C 10.242188 -5.441406 11.503906 -4.828125 13.140625 -4.828125 C 14.722656 -4.828125 15.957031 -5.4375 16.84375 -6.65625 C 17.738281 -7.875 18.1875 -9.820312 18.1875 -12.5 C 18.1875 -14.78125 17.738281 -16.546875 16.84375 -17.796875 C 15.957031 -19.054688 14.707031 -19.6875 13.09375 -19.6875 C 11.488281 -19.6875 10.242188 -19.0625 9.359375 -17.8125 C 8.484375 -16.570312 8.046875 -14.640625 8.046875 -12.015625 Z M 8.046875 -12.015625 "/></g></g></g><g fill="#fbfefe" fill-opacity="1"><g transform="translate(554.176012, 371.937513)"><g><path d="M 4.3125 0 L 4.3125 -19.734375 L 0.65625 -19.734375 L 0.65625 -24.546875 L 4.3125 -24.546875 L 4.3125 -26.625 C 4.3125 -29.375 5.097656 -31.507812 6.671875 -33.03125 C 8.253906 -34.550781 10.46875 -35.3125 13.3125 -35.3125 C 14.21875 -35.3125 15.332031 -35.160156 16.65625 -34.859375 L 16.578125 -29.78125 C 16.035156 -29.914062 15.367188 -29.984375 14.578125 -29.984375 C 12.117188 -29.984375 10.890625 -28.828125 10.890625 -26.515625 L 10.890625 -24.546875 L 15.765625 -24.546875 L 15.765625 -19.734375 L 10.890625 -19.734375 L 10.890625 0 Z M 4.3125 0 "/></g></g></g><g fill="#fbfefe" fill-opacity="1"><g transform="translate(290.998143, 417.687511)"><g><path d="M 21.59375 -6.796875 L 9.65625 -6.796875 L 7.390625 0 L 0.15625 0 L 12.453125 -33.03125 L 18.765625 -33.03125 L 31.125 0 L 23.890625 0 Z M 11.5 -12.3125 L 19.75 -12.3125 L 15.609375 -24.671875 Z M 11.5 -12.3125 "/></g></g></g><g fill="#fbfefe" fill-opacity="1"><g transform="translate(325.041757, 417.687511)"><g><path d="M 24.609375 -12.046875 C 24.609375 -8.265625 23.75 -5.234375 22.03125 -2.953125 C 20.320312 -0.679688 18.003906 0.453125 15.078125 0.453125 C 12.597656 0.453125 10.597656 -0.40625 9.078125 -2.125 L 9.078125 9.4375 L 2.515625 9.4375 L 2.515625 -24.546875 L 8.59375 -24.546875 L 8.828125 -22.140625 C 10.410156 -24.046875 12.476562 -25 15.03125 -25 C 18.0625 -25 20.414062 -23.878906 22.09375 -21.640625 C 23.769531 -19.398438 24.609375 -16.316406 24.609375 -12.390625 Z M 18.0625 -12.515625 C 18.0625 -14.804688 17.65625 -16.570312 16.84375 -17.8125 C 16.03125 -19.050781 14.851562 -19.671875 13.3125 -19.671875 C 11.257812 -19.671875 9.847656 -18.882812 9.078125 -17.3125 L 9.078125 -7.265625 C 9.878906 -5.640625 11.304688 -4.828125 13.359375 -4.828125 C 16.492188 -4.828125 18.0625 -7.390625 18.0625 -12.515625 Z M 18.0625 -12.515625 "/></g></g></g><g fill="#fbfefe" fill-opacity="1"><g transform="translate(353.981878, 417.687511)"><g><path d="M 24.609375 -12.046875 C 24.609375 -8.265625 23.75 -5.234375 22.03125 -2.953125 C 20.320312 -0.679688 18.003906 0.453125 15.078125 0.453125 C 12.597656 0.453125 10.597656 -0.40625 9.078125 -2.125 L 9.078125 9.4375 L 2.515625 9.4375 L 2.515625 -24.546875 L 8.59375 -24.546875 L 8.828125 -22.140625 C 10.410156 -24.046875 12.476562 -25 15.03125 -25 C 18.0625 -25 20.414062 -23.878906 22.09375 -21.640625 C 23.769531 -19.398438 24.609375 -16.316406 24.609375 -12.390625 Z M 18.0625 -12.515625 C 18.0625 -14.804688 17.65625 -16.570312 16.84375 -17.8125 C 16.03125 -19.050781 14.851562 -19.671875 13.3125 -19.671875 C 11.257812 -19.671875 9.847656 -18.882812 9.078125 -17.3125 L 9.078125 -7.265625 C 9.878906 -5.640625 11.304688 -4.828125 13.359375 -4.828125 C 16.492188 -4.828125 18.0625 -7.390625 18.0625 -12.515625 Z M 18.0625 -12.515625 "/></g></g></g><g fill="#fbfefe" fill-opacity="1"><g transform="translate(382.921999, 417.687511)"><g><path d="M 13.8125 0.453125 C 10.21875 0.453125 7.289062 -0.648438 5.03125 -2.859375 C 2.769531 -5.066406 1.640625 -8.007812 1.640625 -11.6875 L 1.640625 -12.3125 C 1.640625 -14.78125 2.113281 -16.984375 3.0625 -18.921875 C 4.007812 -20.867188 5.359375 -22.367188 7.109375 -23.421875 C 8.859375 -24.472656 10.851562 -25 13.09375 -25 C 16.445312 -25 19.085938 -23.9375 21.015625 -21.8125 C 22.941406 -19.695312 23.90625 -16.695312 23.90625 -12.8125 L 23.90625 -10.140625 L 8.28125 -10.140625 C 8.488281 -8.535156 9.125 -7.25 10.1875 -6.28125 C 11.257812 -5.3125 12.613281 -4.828125 14.25 -4.828125 C 16.769531 -4.828125 18.742188 -5.742188 20.171875 -7.578125 L 23.390625 -3.96875 C 22.398438 -2.570312 21.066406 -1.484375 19.390625 -0.703125 C 17.710938 0.0664062 15.851562 0.453125 13.8125 0.453125 Z M 13.0625 -19.6875 C 11.757812 -19.6875 10.703125 -19.25 9.890625 -18.375 C 9.085938 -17.5 8.570312 -16.242188 8.34375 -14.609375 L 17.46875 -14.609375 L 17.46875 -15.125 C 17.4375 -16.582031 17.039062 -17.707031 16.28125 -18.5 C 15.53125 -19.289062 14.457031 -19.6875 13.0625 -19.6875 Z M 13.0625 -19.6875 "/></g></g></g><g fill="#fbfefe" fill-opacity="1"><g transform="translate(410.81874, 417.687511)"><g><path d="M 16.734375 0 C 16.429688 -0.59375 16.210938 -1.328125 16.078125 -2.203125 C 14.492188 -0.429688 12.429688 0.453125 9.890625 0.453125 C 7.484375 0.453125 5.488281 -0.238281 3.90625 -1.625 C 2.332031 -3.019531 1.546875 -4.773438 1.546875 -6.890625 C 1.546875 -9.492188 2.507812 -11.488281 4.4375 -12.875 C 6.363281 -14.269531 9.148438 -14.976562 12.796875 -15 L 15.8125 -15 L 15.8125 -16.40625 C 15.8125 -17.53125 15.519531 -18.429688 14.9375 -19.109375 C 14.351562 -19.796875 13.4375 -20.140625 12.1875 -20.140625 C 11.082031 -20.140625 10.210938 -19.875 9.578125 -19.34375 C 8.953125 -18.8125 8.640625 -18.085938 8.640625 -17.171875 L 2.09375 -17.171875 C 2.09375 -18.585938 2.53125 -19.898438 3.40625 -21.109375 C 4.28125 -22.328125 5.519531 -23.28125 7.125 -23.96875 C 8.726562 -24.65625 10.523438 -25 12.515625 -25 C 15.546875 -25 17.945312 -24.238281 19.71875 -22.71875 C 21.5 -21.195312 22.390625 -19.0625 22.390625 -16.3125 L 22.390625 -5.671875 C 22.398438 -3.335938 22.722656 -1.578125 23.359375 -0.390625 L 23.359375 0 Z M 11.3125 -4.5625 C 12.28125 -4.5625 13.171875 -4.773438 13.984375 -5.203125 C 14.804688 -5.640625 15.414062 -6.21875 15.8125 -6.9375 L 15.8125 -11.15625 L 13.359375 -11.15625 C 10.078125 -11.15625 8.332031 -10.019531 8.125 -7.75 L 8.09375 -7.375 C 8.09375 -6.550781 8.378906 -5.875 8.953125 -5.34375 C 9.535156 -4.820312 10.320312 -4.5625 11.3125 -4.5625 Z M 11.3125 -4.5625 "/></g></g></g><g fill="#fbfefe" fill-opacity="1"><g transform="translate(438.511335, 417.687511)"><g><path d="M 9.4375 0 L 2.859375 0 L 2.859375 -34.84375 L 9.4375 -34.84375 Z M 9.4375 0 "/></g></g></g><g fill="#fbfefe" fill-opacity="1"><g transform="translate(453.615316, 417.687511)"><g><path d="M 15.8125 -6.78125 C 15.8125 -7.582031 15.410156 -8.210938 14.609375 -8.671875 C 13.816406 -9.140625 12.546875 -9.550781 10.796875 -9.90625 C 4.960938 -11.132812 2.046875 -13.617188 2.046875 -17.359375 C 2.046875 -19.535156 2.945312 -21.351562 4.75 -22.8125 C 6.5625 -24.269531 8.925781 -25 11.84375 -25 C 14.957031 -25 17.445312 -24.265625 19.3125 -22.796875 C 21.175781 -21.328125 22.109375 -19.421875 22.109375 -17.078125 L 15.5625 -17.078125 C 15.5625 -18.015625 15.257812 -18.789062 14.65625 -19.40625 C 14.050781 -20.019531 13.101562 -20.328125 11.8125 -20.328125 C 10.707031 -20.328125 9.851562 -20.078125 9.25 -19.578125 C 8.644531 -19.078125 8.34375 -18.441406 8.34375 -17.671875 C 8.34375 -16.941406 8.6875 -16.351562 9.375 -15.90625 C 10.0625 -15.46875 11.222656 -15.082031 12.859375 -14.75 C 14.492188 -14.425781 15.867188 -14.0625 16.984375 -13.65625 C 20.453125 -12.382812 22.1875 -10.179688 22.1875 -7.046875 C 22.1875 -4.816406 21.222656 -3.007812 19.296875 -1.625 C 17.378906 -0.238281 14.898438 0.453125 11.859375 0.453125 C 9.804688 0.453125 7.976562 0.0859375 6.375 -0.640625 C 4.78125 -1.378906 3.53125 -2.382812 2.625 -3.65625 C 1.71875 -4.9375 1.265625 -6.316406 1.265625 -7.796875 L 7.484375 -7.796875 C 7.546875 -6.640625 7.976562 -5.75 8.78125 -5.125 C 9.582031 -4.507812 10.65625 -4.203125 12 -4.203125 C 13.25 -4.203125 14.195312 -4.4375 14.84375 -4.90625 C 15.488281 -5.382812 15.8125 -6.007812 15.8125 -6.78125 Z M 15.8125 -6.78125 "/></g></g></g><g fill="#ff914d" fill-opacity="1"><g transform="translate(259.468396, 116.101158)"><g><path d="M 20.34375 -18.859375 L 12.46875 -18.40625 L 10.390625 -0.59375 L 0.703125 -0.046875 L 6.3125 -48.71875 L 22.265625 -49.609375 C 27.609375 -49.910156 31.789062 -48.882812 34.8125 -46.53125 C 37.84375 -44.1875 39.320312 -40.765625 39.25 -36.265625 C 39.164062 -29.617188 35.894531 -24.8125 29.4375 -21.84375 L 37.34375 -2.671875 L 37.375 -2.140625 L 27.046875 -1.546875 Z M 13.390625 -26.546875 L 20.625 -26.890625 C 23.175781 -27.078125 25.242188 -27.882812 26.828125 -29.3125 C 28.421875 -30.75 29.316406 -32.625 29.515625 -34.9375 C 29.710938 -37.101562 29.273438 -38.765625 28.203125 -39.921875 C 27.140625 -41.078125 25.523438 -41.640625 23.359375 -41.609375 L 15.078125 -41.171875 Z M 13.390625 -26.546875 "/></g></g></g><g fill="#ff914d" fill-opacity="1"><g transform="translate(301.776476, 113.676011)"><g><path d="M 17.140625 -0.328125 C 14.015625 -0.171875 11.195312 -0.773438 8.6875 -2.140625 C 6.1875 -3.515625 4.265625 -5.488281 2.921875 -8.0625 C 1.585938 -10.632812 0.957031 -13.507812 1.03125 -16.6875 L 1.0625 -18.03125 C 1.195312 -21.539062 2.023438 -24.800781 3.546875 -27.8125 C 5.078125 -30.820312 7.132812 -33.191406 9.71875 -34.921875 C 12.300781 -36.660156 15.21875 -37.570312 18.46875 -37.65625 C 23.09375 -37.84375 26.679688 -36.351562 29.234375 -33.1875 C 31.796875 -30.019531 32.9375 -25.894531 32.65625 -20.8125 L 32.359375 -16.703125 L 10.421875 -15.4375 C 10.453125 -13.125 11.113281 -11.300781 12.40625 -9.96875 C 13.707031 -8.644531 15.40625 -8.023438 17.5 -8.109375 C 20.90625 -8.210938 23.8125 -9.695312 26.21875 -12.5625 L 30.796875 -7.5 C 29.566406 -5.40625 27.71875 -3.710938 25.25 -2.421875 C 22.78125 -1.140625 20.078125 -0.441406 17.140625 -0.328125 Z M 18.4375 -29.9375 C 16.71875 -29.875 15.222656 -29.238281 13.953125 -28.03125 C 12.691406 -26.832031 11.609375 -24.816406 10.703125 -21.984375 L 23.546875 -22.71875 L 23.6875 -23.59375 C 23.769531 -24.476562 23.738281 -25.3125 23.59375 -26.09375 C 23.28125 -27.351562 22.675781 -28.316406 21.78125 -28.984375 C 20.894531 -29.660156 19.78125 -29.976562 18.4375 -29.9375 Z M 18.4375 -29.9375 "/></g></g></g><g fill="#ff914d" fill-opacity="1"><g transform="translate(337.662202, 111.619)"><g><path d="M 20.15625 -17.984375 L 2.015625 -16.953125 L 2.90625 -24.75 L 21.078125 -25.78125 Z M 20.15625 -17.984375 "/></g></g></g><g fill="#ff914d" fill-opacity="1"><g transform="translate(363.484035, 110.138863)"><g><path d="M 31.3125 -22.75 L 12.84375 -21.6875 L 11.34375 -8.65625 L 33.046875 -9.90625 L 32.125 -1.84375 L 0.703125 -0.046875 L 6.3125 -48.71875 L 37.671875 -50.515625 L 36.703125 -42.40625 L 15.078125 -41.171875 L 13.71875 -29.546875 L 32.265625 -30.609375 Z M 31.3125 -22.75 "/></g></g></g><g fill="#ff914d" fill-opacity="1"><g transform="translate(400.793278, 108.000254)"><g><path d="M 9.96875 -0.578125 L 0.5625 -0.03125 L 6.484375 -51.40625 L 15.84375 -51.9375 Z M 9.96875 -0.578125 "/></g></g></g><g fill="#ff914d" fill-opacity="1"><g transform="translate(418.570622, 106.981236)"><g><path d="M 17.140625 -0.328125 C 14.015625 -0.171875 11.195312 -0.773438 8.6875 -2.140625 C 6.1875 -3.515625 4.265625 -5.488281 2.921875 -8.0625 C 1.585938 -10.632812 0.957031 -13.507812 1.03125 -16.6875 L 1.0625 -18.03125 C 1.195312 -21.539062 2.023438 -24.800781 3.546875 -27.8125 C 5.078125 -30.820312 7.132812 -33.191406 9.71875 -34.921875 C 12.300781 -36.660156 15.21875 -37.570312 18.46875 -37.65625 C 23.09375 -37.84375 26.679688 -36.351562 29.234375 -33.1875 C 31.796875 -30.019531 32.9375 -25.894531 32.65625 -20.8125 L 32.359375 -16.703125 L 10.421875 -15.4375 C 10.453125 -13.125 11.113281 -11.300781 12.40625 -9.96875 C 13.707031 -8.644531 15.40625 -8.023438 17.5 -8.109375 C 20.90625 -8.210938 23.8125 -9.695312 26.21875 -12.5625 L 30.796875 -7.5 C 29.566406 -5.40625 27.71875 -3.710938 25.25 -2.421875 C 22.78125 -1.140625 20.078125 -0.441406 17.140625 -0.328125 Z M 18.4375 -29.9375 C 16.71875 -29.875 15.222656 -29.238281 13.953125 -28.03125 C 12.691406 -26.832031 11.609375 -24.816406 10.703125 -21.984375 L 23.546875 -22.71875 L 23.6875 -23.59375 C 23.769531 -24.476562 23.738281 -25.3125 23.59375 -26.09375 C 23.28125 -27.351562 22.675781 -28.316406 21.78125 -28.984375 C 20.894531 -29.660156 19.78125 -29.976562 18.4375 -29.9375 Z M 18.4375 -29.9375 "/></g></g></g><g fill="#ff914d" fill-opacity="1"><g transform="translate(454.456349, 104.924225)"><g><path d="M 15.375 -7.921875 C 17.101562 -7.972656 18.515625 -8.523438 19.609375 -9.578125 C 20.710938 -10.628906 21.394531 -11.984375 21.65625 -13.640625 L 30.421875 -14.171875 C 30.398438 -11.640625 29.738281 -9.332031 28.4375 -7.25 C 27.132812 -5.164062 25.328125 -3.488281 23.015625 -2.21875 C 20.703125 -0.957031 18.234375 -0.28125 15.609375 -0.1875 C 11.242188 -0.0078125 7.707031 -1.3125 5 -4.09375 C 2.300781 -6.882812 0.859375 -10.722656 0.671875 -15.609375 L 0.65625 -17.4375 L 0.671875 -17.8125 C 0.941406 -23.664062 2.644531 -28.394531 5.78125 -32 C 8.914062 -35.601562 12.9375 -37.476562 17.84375 -37.625 C 21.882812 -37.769531 25.164062 -36.632812 27.6875 -34.21875 C 30.21875 -31.800781 31.578125 -28.507812 31.765625 -24.34375 L 23.046875 -23.84375 C 22.929688 -25.757812 22.425781 -27.242188 21.53125 -28.296875 C 20.632812 -29.359375 19.335938 -29.890625 17.640625 -29.890625 C 13.191406 -29.753906 10.675781 -26.335938 10.09375 -19.640625 C 9.914062 -17.210938 9.914062 -15.179688 10.09375 -13.546875 C 10.53125 -9.679688 12.289062 -7.804688 15.375 -7.921875 Z M 15.375 -7.921875 "/></g></g></g><g fill="#ff914d" fill-opacity="1"><g transform="translate(489.084077, 102.939324)"><g><path d="M 16.46875 -45.71875 L 15.4375 -36.828125 L 21.40625 -37.171875 L 20.5625 -30.078125 L 14.59375 -29.75 L 12.59375 -11.609375 C 12.519531 -10.484375 12.65625 -9.628906 13 -9.046875 C 13.351562 -8.460938 14.117188 -8.1875 15.296875 -8.21875 C 15.648438 -8.21875 16.601562 -8.328125 18.15625 -8.546875 L 17.890625 -1.203125 C 16.265625 -0.554688 14.492188 -0.195312 12.578125 -0.125 C 9.503906 0.0078125 7.164062 -0.816406 5.5625 -2.609375 C 3.957031 -4.398438 3.195312 -6.90625 3.28125 -10.125 L 5.265625 -29.203125 L 0.203125 -28.921875 L 1.03125 -36 L 6.09375 -36.296875 L 7.109375 -45.171875 Z M 16.46875 -45.71875 "/></g></g></g></svg>